Coordinates
version=1
nRows=5
nColumns=40
inDegrees=yes

Units are S.I. units (second, meters, Newtons, ...)
Angles are in degrees.

endheader
time	pelvis_tilt	pelvis_list	pelvis_rotation	pelvis_tx	pelvis_ty	pelvis_tz	hip_flexion_r	hip_adduction_r	hip_rotation_r	knee_angle_r	knee_angle_r_beta	ankle_angle_r	subtalar_angle_r	mtp_angle_r	hip_flexion_l	hip_adduction_l	hip_rotation_l	knee_angle_l	knee_angle_l_beta	ankle_angle_l	subtalar_angle_l	mtp_angle_l	lumbar_extension	lumbar_bending	lumbar_rotation	arm_flex_r	arm_add_r	arm_rot_r	elbow_flex_r	pro_sup_r	wrist_flex_r	wrist_dev_r	arm_flex_l	arm_add_l	arm_rot_l	elbow_flex_l	pro_sup_l	wrist_flex_l	wrist_dev_l
     30.08500000	     -1.81323692	     -5.44062021	      5.84800855	      1.00754472	      0.92500379	      0.56529215	     -0.11684582	      7.28138418	    -18.77961806	     11.44392714	     11.44392714	     15.76171429	     -0.40071386	     -5.06187901	     26.31785235	     -9.23239788	     -1.26439310	     17.43442614	     17.43442614	      1.98177012	     -6.45698277	      1.26588099	     -7.12466879	      5.20320299	      3.22618065	     49.85179810	    -19.96739845	     -9.30758675	     83.66267890	     44.68839178	      0.00000000	      0.00000000	    -18.12171865	     -8.35063017	      6.37495791	     32.94748713	     44.60326694	      0.00000000	      0.00000000
     30.10407143	     -1.79404385	     -5.45225737	      6.06251353	      1.00807101	      0.92401745	      0.56322539	     -0.54136629	      7.22138168	    -18.80955477	     11.53314925	     11.53314925	     16.16069249	     -0.56819143	     -5.13628275	     26.18726563	     -9.13427906	     -1.38238047	     17.97416199	     17.97416199	      1.66520058	     -6.75580248	      1.19573614	     -6.94302710	      5.06894812	      3.26454889	     50.54516533	    -19.81608168	     -9.28414522	     84.00294609	     44.68225115	      0.00000000	      0.00000000	    -17.69324382	     -8.54656217	      6.34381587	     33.09406982	     44.61826049	      0.00000000	      0.00000000
     30.12314286	     -1.78387683	     -5.40870951	      6.27580957	      1.00864998	      0.92308794	      0.56085025	     -0.97853343	      7.09168299	    -18.79638618	     11.60653354	     11.60653354	     16.59695566	     -0.76684241	     -5.19130672	     26.12540145	     -8.95092356	     -1.33620227	     18.69353145	     18.69353145	      1.45392785	     -7.12750512	      1.04402794	     -6.78205580	      4.88790451	      3.24763462	     51.01439431	    -19.66176509	     -9.25324097	     84.30470706	     44.67544430	      0.00000000	      0.00000000	    -17.16595271	     -8.64379340	      6.29668488	     33.33726230	     44.63571375	      0.00000000	      0.00000000
     30.14221429	     -1.73038002	     -5.46061109	      6.44634947	      1.00920202	      0.92202337	      0.55825361	     -1.37490347	      7.03545176	    -18.66248843	     11.83821933	     11.83821933	     17.06553379	     -1.12106590	     -5.09930201	     26.35317545	     -8.81238388	     -0.84887084	     20.02270764	     20.02270764	      1.39301227	     -8.16888413	      0.61616584	     -6.73249618	      4.89517387	      3.24760829	     51.49750113	    -19.57465398	     -9.29845203	     84.88828459	     44.66624716	      0.00000000	      0.00000000	    -16.71844591	     -8.74797427	      6.10141478	     33.81791783	     44.67786119	      0.00000000	      0.00000000
     30.16128571	     -1.81033217	     -5.40007968	      6.62018743	      1.00969421	      0.92102320	      0.55535325	     -1.70494762	      6.86186938	    -18.50763005	     11.92632595	     11.92632595	     17.52716984	     -1.56488263	     -4.78078289	     26.62088542	     -8.45915040	     -0.19563608	     21.17379830	     21.17379830	      1.33157044	     -9.36698856	      0.35832474	     -6.57462480	      4.74416348	      3.38322196	     51.60382430	    -19.64463227	     -9.39753210	     85.40771966	     44.66395418	      0.00000000	      0.00000000	    -16.06058841	     -8.87598921	      5.62457349	     34.65988053	     44.76603088	      0.00000000	      0.00000000
